# Blender v2.90.1 OBJ File: 'Retro Wave Scene.blend'
# www.blender.org
mtllib Batiment3.mtl
o Building_1.245_Cube.248
v 29.430593 -0.035637 21.510685
v 29.430593 21.839083 21.510685
v 29.424438 -0.035637 24.714865
v 29.424438 21.839083 24.714865
v 25.783663 -0.035637 21.503681
v 25.783663 21.839083 21.503681
v 25.777510 -0.035637 24.707859
v 25.777510 21.839083 24.707859
v 29.430593 21.839083 21.510685
v 29.424438 21.839083 24.714865
v 25.777510 21.839083 24.707859
v 25.783663 21.839083 21.503681
v 29.430593 21.839083 21.510685
v 29.424438 21.839083 24.714865
v 25.777510 21.839083 24.707859
v 25.783663 21.839083 21.503681
v 29.218937 21.969904 21.695925
v 29.213497 21.969904 24.528812
v 25.989162 21.969904 24.522619
v 25.994604 21.969904 21.689732
vt 0.999900 0.064290
vt 0.999900 0.935710
vt 0.000100 0.935710
vt 0.000100 0.064290
vt 0.999900 0.064947
vt 0.999900 0.935053
vt 0.000100 0.935053
vt 0.000100 0.064947
vt 0.928903 0.998075
vt 0.066945 0.998075
vt 0.066945 0.001925
vt 0.928903 0.001925
vt 0.999900 0.064171
vt 0.999900 0.935829
vt 0.000100 0.935829
vt 0.000100 0.064171
vt 0.999900 0.999900
vt 0.000100 0.999900
vt 0.000100 0.000100
vt 0.999900 0.000100
vt 0.000025 0.999976
vt 0.000024 0.000024
vt 0.058268 0.057960
vt 0.058268 0.942041
vt 0.578738 0.000102
vt 0.700687 0.380477
vt 0.694112 0.381633
vt 0.572119 0.002288
vt 0.700687 0.742279
vt 0.694396 0.742333
vt 0.625000 0.500000
vt 0.625000 0.750000
vt 0.625000 0.750000
vt 0.625000 0.500000
vt 0.875000 0.750000
vt 0.875000 0.750000
vt 0.875000 0.750000
vt 0.875000 0.500000
vt 0.875000 0.500000
vt 0.625000 0.500000
vt 0.625000 0.750000
vt 0.789271 0.718680
vt 0.210729 0.718680
vt 0.210729 0.281320
vt 0.789271 0.281320
vt 0.058268 0.000024
vt 0.058268 0.999976
vt 0.000025 0.942040
vt 0.000024 0.057960
vt 0.000024 0.999976
vt 0.000024 0.000024
vt 0.058268 0.057960
vt 0.058268 0.942040
vt 0.058268 0.000024
vt 0.058268 0.999976
vt 0.000024 0.942040
vt 0.000024 0.057960
vn 1.0000 0.0000 0.0019
vn -0.0019 0.0000 1.0000
vn -1.0000 0.0000 -0.0019
vn 0.0019 0.0000 -1.0000
vn 0.0000 -1.0000 0.0000
vn -0.5264 0.8502 -0.0010
vn 0.0000 0.0000 1.0000
vn 0.0000 1.0000 -0.0000
vn 0.5264 0.8502 0.0010
vn 0.0011 0.8174 -0.5760
vn -0.0011 0.8174 0.5760
usemtl Material.006
s off
f 1/1/1 9/2/1 10/3/1 3/4/1
f 3/5/2 10/6/2 11/7/2 7/8/2
f 7/9/3 11/10/3 12/11/3 5/12/3
f 5/13/4 12/14/4 9/15/4 1/16/4
f 3/17/5 7/18/5 5/19/5 1/20/5
f 6/21/6 8/22/6 19/23/6 20/24/6
f 13/25/7 14/26/7 10/27/7 9/28/7
f 14/26/7 15/29/7 11/30/7 10/27/7
f 15/31/7 16/32/7 12/33/7 11/34/7
f 16/32/7 13/35/7 9/36/7 12/33/7
f 2/37/7 4/38/7 14/39/7 13/35/7
f 4/38/7 8/40/7 15/31/7 14/39/7
f 8/40/7 6/41/7 16/32/7 15/31/7
f 6/41/7 2/37/7 13/35/7 16/32/7
f 19/42/8 18/43/8 17/44/8 20/45/8
f 4/46/9 2/47/9 17/48/9 18/49/9
f 2/50/10 6/51/10 20/52/10 17/53/10
f 8/54/11 4/55/11 18/56/11 19/57/11
